<svg width="753" height="524" viewBox="0 0 753 524" fill="none" xmlns="http://www.w3.org/2000/svg">
<path d="M246.712 111.838C235.328 113.44 228.486 121.106 225.868 135.242C225.364 137.787 225.301 142.436 225.238 181.548L225.112 225.057L220.792 220.785C211.237 211.36 203.133 205.329 194.02 200.805C182.921 195.276 169.772 192.574 154.069 192.574C132.059 192.574 113.328 198.92 98.3819 211.36C94.6295 214.471 88.4806 220.785 85.7373 224.303C70.3809 244.001 63.0968 270.201 63.7906 303.469C63.9798 312.862 64.2636 316.506 65.3041 323.7C72.399 372.801 101.504 406.133 142.212 411.724C147.573 412.478 159.366 412.478 165.073 411.724C180.493 409.714 194.651 403.682 206.854 393.881C211.427 390.237 217.67 384.394 221.517 380.153L224.986 376.32L225.206 381.912C225.553 392.059 227.382 397.996 231.828 403.588C235.675 408.426 241.319 411.473 247.91 412.227C253.365 412.855 259.514 411.662 263.928 409.117C266.451 407.641 270.676 403.494 272.095 401.106C274.208 397.494 275.564 393.19 276.195 388.132C276.699 384.142 276.699 139.892 276.195 135.871C274.618 122.99 268.595 115.074 258.379 112.466C255.541 111.744 249.644 111.43 246.712 111.838ZM177.056 233.257C181.723 234.011 185.317 235.173 189.984 237.498C200.39 242.65 207.958 250.441 213.791 262.001C218.017 270.42 220.539 279.594 221.706 290.903C222.274 296.181 222.179 309.218 221.549 315.092C218.332 345.125 203.323 364.759 179.894 369.597C174.407 370.728 165.893 370.728 160.501 369.597C154.542 368.372 147.699 365.388 142.685 361.869C139.059 359.293 134.14 354.392 131.397 350.591C126.887 344.277 122.536 334.193 120.644 325.616C117.964 313.616 117.491 298.694 119.383 285.405C121.811 268.096 129.221 252.734 139.406 243.875C146.28 237.937 153.816 234.482 163.339 233.005C165.452 232.66 174.47 232.817 177.056 233.257Z" fill="#373634"/>
<path d="M497.207 111.994C486.36 114.067 480.337 121.01 477.499 134.77C476.995 137.283 476.963 145.168 476.837 260.115C476.774 348.736 476.837 383.858 477.089 386.686C478.256 399.534 483.837 407.796 493.549 411.095C500.423 413.42 509.221 412.571 515.307 408.99C517.955 407.419 520.888 404.781 522.654 402.299C526.375 397.021 527.794 391.869 528.109 382.225L528.33 376.287L532.934 381.439C547.88 398.026 558.979 405.346 575.755 409.681C591.773 413.797 610.882 413.2 626.27 408.048C642.068 402.77 655.753 392.874 665.97 379.335C671.267 372.298 674.957 365.952 678.425 357.878C684.416 343.961 687.79 329.008 689.02 311.164C689.714 300.986 689.052 284.713 687.538 274.88C682.808 244.031 668.776 219.904 647.492 206.082C634.279 197.505 619.554 193.17 601.801 192.667C586.035 192.228 573.012 194.584 561.754 199.924C552.231 204.448 542.046 211.862 532.524 221.129L528.172 225.339V182.018C528.172 153.964 528.046 137.754 527.857 136.026C527.068 129.743 524.703 123.649 521.582 119.816C518.586 116.141 513.919 113.345 508.969 112.277C505.784 111.586 500.076 111.46 497.207 111.994ZM594.706 233.664C603.441 235.706 609.747 239.256 616.148 245.633C624.757 254.241 630.622 266.618 633.144 281.634C634.374 288.86 634.595 292.064 634.563 302.211C634.563 310.599 634.437 312.892 633.87 317.29C631.694 333.406 626.901 344.904 618.387 354.58C608.233 366.077 595.431 371.418 580.548 370.35C572.948 369.816 567.241 368.339 561.124 365.324C547.722 358.758 537.979 345.846 533.69 328.914C529.812 313.709 529.875 293.006 533.848 277.236C538.862 257.351 550.466 242.491 565.854 236.24C569.196 234.858 572.602 233.884 576.417 233.224C580.106 232.596 591.237 232.847 594.706 233.664Z" fill="#373634"/>
<path d="M301.768 192.479C299.592 192.856 296.155 193.955 294.263 194.898C285.654 199.202 281.114 207.087 280.042 219.433C279.569 224.554 279.569 331.458 280.01 340.38C281.524 370.664 289.691 388.005 308.295 400.414C321.003 408.896 337.021 412.791 355.468 411.818C374.766 410.844 389.397 405.566 403.303 394.571C407.118 391.555 416.61 382.225 420.078 378.047L422.443 375.188L422.632 381.502C422.979 393.22 425.344 399.943 431.052 405.535C438.525 412.886 450.539 414.551 460.156 409.587C464.035 407.577 467.945 403.618 469.931 399.597C471.666 396.079 472.832 391.775 473.305 387.094C473.558 384.738 473.621 358.946 473.558 300.483L473.431 217.234L472.769 214.249C472.391 212.616 471.792 210.354 471.413 209.223C468.355 200.176 461.197 194.081 451.8 192.573C448.3 192.008 441.647 192.322 438.619 193.201C430.452 195.558 424.398 201.401 421.623 209.694C419.511 216.009 419.637 213.056 419.384 264.827C419.227 294.86 419.038 313.426 418.785 316.348C417.556 332.244 416.2 338.715 412.857 344.872C406.267 356.967 394.316 365.983 380.599 369.156C376.721 370.067 368.238 370.287 364.076 369.627C353.324 367.868 345.819 362.245 340.71 352.192C338.314 347.417 336.359 339.972 335.381 331.741C335.129 329.573 334.814 327.249 334.688 326.558C334.593 325.866 334.404 301.269 334.278 271.896C334.026 213.967 334.12 216.417 332.323 210.605C329.453 201.307 322.421 194.741 313.372 192.887C310.628 192.29 304.133 192.071 301.768 192.479Z" fill="#373634"/>
</svg>
